HIERARCHY
ROOT hip
{
	OFFSET 0.000000 0.000000 0.000000 
	CHANNELS 6 Xposition Yposition Zposition Xrotation Zrotation Yrotation
	JOINT abdomen
	{
		OFFSET 0.000000 3.402643 0.000000 
		CHANNELS 3 Xrotation Zrotation Yrotation
		JOINT chest
		{
			OFFSET 0.000000 8.438565 -0.680529 
			CHANNELS 3 Xrotation Zrotation Yrotation
			JOINT neck
			{
				OFFSET 0.000000 10.207942 -0.272212 
				CHANNELS 3 Xrotation Zrotation Yrotation
				JOINT head
				{
					OFFSET 0.000000 3.130431 0.000000 
					CHANNELS 3 Xrotation Zrotation Yrotation
					End Site
					{
						OFFSET 0.000000 3.130435 0.000000 
					}
				}
			}
			JOINT lCollar
			{
				OFFSET 3.470700 6.669187 -0.816635 
				CHANNELS 3 Yrotation Zrotation Xrotation
				JOINT lShldr
				{
					OFFSET 3.198488 0.000000 0.000000 
					CHANNELS 3 Zrotation Yrotation Xrotation
					JOINT lForeArm
					{
						OFFSET 10.139888 0.000000 0.000000 
						CHANNELS 3 Yrotation Zrotation Xrotation
						JOINT lHand
						{
							OFFSET 8.370511 0.000000 0.000000 
							CHANNELS 3 Zrotation Yrotation Xrotation
							End Site
							{
								OFFSET 4.083176 0.000000 0.000000 
							}
						}
					}
				}
			}
			JOINT rCollar
			{
				OFFSET -3.470700 6.669187 -0.816635 
				CHANNELS 3 Yrotation Zrotation Xrotation
				JOINT rShldr
				{
					OFFSET -3.198488 0.000000 0.000000 
					CHANNELS 3 Zrotation Yrotation Xrotation
					JOINT rForeArm
					{
						OFFSET -10.139888 0.000000 0.000000 
						CHANNELS 3 Yrotation Zrotation Xrotation
						JOINT rHand
						{
							OFFSET -8.370511 0.000000 0.000000 
							CHANNELS 3 Zrotation Yrotation Xrotation
							End Site
							{
								OFFSET -4.083176 0.000000 0.000000 
							}
						}
					}
				}
			}
		}
	}
	JOINT lThigh
	{
		OFFSET 5.308129 -1.633274 1.361059 
		CHANNELS 3 Xrotation Zrotation Yrotation
		JOINT lShin
		{
			OFFSET -2.041588 -20.007561 0.000000 
			CHANNELS 3 Xrotation Zrotation Yrotation
			JOINT lFoot
			{
				OFFSET 0.000000 -19.190928 -1.224953 
				CHANNELS 3 Xrotation Yrotation Zrotation
				End Site
				{
					OFFSET 0.000000 -2.449906 4.627600 
				}
			}
		}
	}
	JOINT rThigh
	{
		OFFSET -5.308129 -1.633274 1.361059 
		CHANNELS 3 Xrotation Zrotation Yrotation
		JOINT rShin
		{
			OFFSET 2.041588 -20.007561 0.000000 
			CHANNELS 3 Xrotation Zrotation Yrotation
			JOINT rFoot
			{
				OFFSET 0.000000 -19.190928 -1.224953 
				CHANNELS 3 Xrotation Yrotation Zrotation
				End Site
				{
					OFFSET 0.000000 -2.449906 4.627600 
				}
			}
		}
	}
}
MOTION
Frames: 6
Frame Time: 0.016667
-2.391336 51.915897 -2.288241 -8.566706 8.731714 37.639622 32.850441 7.423452 4.999655 1.817947 2.167866 0.625710 6.825418 -9.423911 -1.243652 20.101116 -10.303470 32.379787 -9.521049 -10.250771 -0.541225 -38.139256 -8.171512 -0.781154 -97.625381 5.000000 2.903245 8.883223 29.904562 45.000000 12.840365 10.330404 -0.537519 58.990780 -4.723589 -11.744821 31.103073 5.000000 22.295635 20.448576 -16.179087 2.205703 3.095701 17.238918 -11.247578 1.875624 -8.814381 -0.729622 2.119678 -8.855373 -13.077185 23.071156 -6.964163 -39.110722 13.599989 -1.404509 -0.607950 -13.448048 -15.111828 11.111300 
-2.390993 51.915897 -2.279963 -8.577206 8.727383 37.609379 32.842087 7.429080 5.013451 1.836647 2.158108 0.606191 6.814049 -9.422503 -1.234118 20.114481 -10.316655 32.411926 -9.521334 -10.280028 -0.542732 -38.120510 -8.102810 -0.839065 -97.727341 5.000000 2.938257 8.836992 29.950447 45.000000 12.840552 10.349909 -0.538527 58.973518 -4.784580 -11.834761 31.072224 5.000000 22.343365 20.423765 -16.162077 2.197185 3.105531 17.246702 -11.243236 1.876032 -8.814293 -0.729608 2.117792 -8.870686 -13.094497 23.078426 -6.974304 -39.093742 13.589560 -1.406766 -0.598710 -13.435733 -15.122073 11.152932 
-2.390649 51.915897 -2.271683 -8.577933 8.723044 37.579132 32.842800 7.426081 5.021462 1.855720 2.148346 0.596431 6.804285 -9.422503 -1.234118 20.112738 -10.338068 32.444065 -9.510007 -10.301147 -0.534260 -38.101830 -8.034072 -0.896929 -97.819351 5.000000 2.967365 8.799571 30.000000 45.000000 12.850505 10.369412 -0.539535 58.965885 -4.835258 -11.931335 31.041367 5.000000 22.391111 20.408749 -16.154516 2.185037 3.125616 17.281794 -11.229145 1.877594 -8.823952 -0.729531 2.095499 -8.857366 -13.112570 23.078865 -6.974242 -39.073734 13.599958 -1.397041 -0.587679 -13.452557 -15.115159 11.154379 
-2.391436 51.915897 -2.262177 -8.596699 8.717566 37.558475 32.845436 7.439243 5.037971 1.865120 2.148350 0.576540 6.815864 -9.433562 -1.242191 20.088791 -10.318269 32.470951 -9.520145 -10.340156 -0.536270 -38.089897 -7.918361 -0.941663 -98.147545 5.000000 3.080277 8.835151 29.719069 45.000000 12.840739 10.369413 -0.539535 58.956203 -4.875975 -12.010427 31.013178 5.000000 22.398388 20.407934 -16.177578 2.216587 3.154175 17.295544 -11.238234 1.884923 -8.822380 -0.730745 2.107953 -8.877287 -13.139074 23.119879 -6.954684 -39.068836 13.577159 -1.424499 -0.581390 -13.472106 -15.092607 11.186110 
-2.392225 51.915897 -2.252666 -8.622965 8.705467 37.528229 32.846661 7.446776 5.041943 1.874797 2.138585 0.576540 6.816077 -9.443217 -1.240730 20.059532 -10.306713 32.499592 -9.539957 -10.369413 -0.537777 -38.087975 -7.795178 -0.991128 -98.465508 5.000000 3.186653 8.896914 29.434605 45.000000 12.840833 10.379165 -0.540039 58.947758 -4.930098 -12.092774 30.984989 5.000000 22.405661 20.399967 -16.187792 2.245679 3.193675 17.315775 -11.210859 1.886854 -8.812273 -0.759918 2.058744 -8.872797 -13.174191 23.126146 -6.945218 -39.026142 13.570530 -1.397018 -0.588455 -13.433533 -15.110484 11.169710 
-2.393014 51.915897 -2.243158 -8.635702 8.707721 37.507572 32.846344 7.460459 5.036819 1.884198 2.138588 0.557016 6.826055 -9.452871 -1.239269 20.032042 -10.296266 32.518684 -9.550006 -10.398668 -0.539284 -38.104519 -7.663142 -1.059032 -98.760277 5.000000 3.282767 8.974667 29.142330 45.000000 12.831067 10.379164 -0.540039 58.944572 -4.953816 -12.146875 30.966200 5.000000 22.410507 20.389433 -16.196476 2.244790 3.212862 17.341488 -11.220136 1.896357 -8.820016 -0.741555 2.045112 -8.840468 -13.153489 23.149122 -6.915773 -39.038074 13.529186 -1.413925 -0.581537 -13.444021 -15.097640 11.186944 
